<?xml version="1.0" encoding="utf-8"?>
<!-- Generator: Adobe Illustrator 14.0.0, SVG Export Plug-In . SVG Version: 6.00 Build 43363)  -->
<!DOCTYPE svg PUBLIC "-//W3C//DTD SVG 1.1//EN" "http://www.w3.org/Graphics/SVG/1.1/DTD/svg11.dtd">
<svg version="1.1" id="Layer_1" xmlns="http://www.w3.org/2000/svg" xmlns:xlink="http://www.w3.org/1999/xlink" x="0px" y="0px"
	 width="100px" height="100px" viewBox="0 0 100 100" enable-background="new 0 0 100 100" xml:space="preserve">
<path fill="none" stroke="#FFFFFF" stroke-width="15" stroke-linejoin="round" d="M82.425,71.832
	C88.705,65.021,92.5,56.21,92.5,46.581C92.5,24.997,73.472,7.5,50,7.5S7.5,24.997,7.5,46.581c0,21.583,19.028,39.081,42.5,39.081
	c5.658,0,11.055-1.025,15.992-2.872L92,92.5L82.425,71.832z"/>
<path fill="#CFDBE6" stroke="#336699" stroke-width="5" stroke-linejoin="round" d="M82.425,71.832
	C88.705,65.021,92.5,56.21,92.5,46.581C92.5,24.997,73.472,7.5,50,7.5S7.5,24.997,7.5,46.581c0,21.583,19.028,39.081,42.5,39.081
	c5.658,0,11.055-1.025,15.992-2.872L92,92.5L82.425,71.832z"/>
</svg>
