<?xml version="1.0" encoding="utf-8"?>
<!-- Generator: Adobe Illustrator 14.0.0, SVG Export Plug-In . SVG Version: 6.00 Build 43363)  -->
<!DOCTYPE svg PUBLIC "-//W3C//DTD SVG 1.1//EN" "http://www.w3.org/Graphics/SVG/1.1/DTD/svg11.dtd">
<svg version="1.1" id="Layer_1" xmlns="http://www.w3.org/2000/svg" xmlns:xlink="http://www.w3.org/1999/xlink" x="0px" y="0px"
	 width="100px" height="100px" viewBox="0 0 100 100" enable-background="new 0 0 100 100" xml:space="preserve">
<path fill="#FFFFFF" d="M95,5v90H5V5H95 M100,0H0v100h100V0L100,0z"/>
<g>
	<rect x="7.5" y="7.5" fill="#CFDBE6" width="85" height="85"/>
	<path fill="#336699" d="M90,10v80H10V10H90 M95,5H5v90h90V5L95,5z"/>
</g>
<line fill="none" stroke="#336699" stroke-width="4" x1="10" y1="44" x2="90" y2="44"/>
<line fill="none" stroke="#336699" stroke-width="4" x1="10" y1="60" x2="90" y2="60"/>
<line fill="none" stroke="#336699" stroke-width="4" x1="10" y1="76" x2="90" y2="76"/>
<line fill="none" stroke="#336699" stroke-width="4" x1="10" y1="44" x2="90" y2="44"/>
<line fill="none" stroke="#336699" stroke-width="8" x1="10" y1="26" x2="90" y2="26"/>
<line fill="none" stroke="#336699" stroke-width="4" x1="44" y1="90" x2="44" y2="10"/>
<line fill="none" stroke="#336699" stroke-width="4" x1="60" y1="90" x2="60" y2="10"/>
<line fill="none" stroke="#336699" stroke-width="4" x1="76" y1="90" x2="76" y2="10"/>
<line fill="none" stroke="#336699" stroke-width="4" x1="44" y1="90" x2="44" y2="10"/>
<line fill="none" stroke="#336699" stroke-width="4" x1="26" y1="90" x2="26" y2="10"/>
<line fill="none" stroke="#336699" stroke-width="8" x1="26" y1="90" x2="26" y2="10"/>
</svg>
