<?xml version="1.0" encoding="UTF-8" standalone="no"?>
<!-- Created with Inkscape (http://www.inkscape.org/) -->
<svg
   xmlns:svg="http://www.w3.org/2000/svg"
   xmlns="http://www.w3.org/2000/svg"
   version="1.0"
   width="512.73901"
   height="631.42999"
   viewBox="0 0 512.739 631.43"
   id="Layer_1"
   xml:space="preserve"><defs
   id="defs239" />

<path
   d="M 244.606,516.034 C 244.606,565.354 271.421,608.398 311.24,631.43 L 311.24,400.653 C 271.422,423.687 244.606,466.713 244.606,516.034 M 118.381,417.12 C 91.182,454.558 87.804,501.995 105.324,541.444 L 232.597,366.282 C 228.268,365.835 223.941,365.597 219.613,365.597 C 180.961,365.598 142.843,383.454 118.381,417.12 M 285.789,356.572 C 285.789,375.401 296.036,391.856 311.24,400.653 L 311.24,312.491 C 296.036,321.308 285.789,337.742 285.789,356.572 M 237.579,318.784 C 227.181,333.079 225.888,351.205 232.597,366.266 L 281.198,299.377 C 279.546,299.203 277.89,299.121 276.246,299.121 C 261.472,299.122 246.915,305.925 237.579,318.784 M 424.888,330.379 C 448.615,338.063 473.484,331.911 490.78,316.356 L 379.825,280.308 C 384.688,303.052 401.187,322.665 424.888,330.379 M 78.15,272.365 C 37.039,285.708 8.425,319.725 0,359.145 L 192.354,296.646 C 171.113,277.559 143.265,266.617 114.221,266.617 C 102.276,266.616 90.12,268.47 78.15,272.365 M 222.2,263.5 C 206.507,268.597 195.582,281.584 192.363,296.645 L 265.833,272.766 C 257.712,265.482 247.082,261.312 235.982,261.312 C 231.413,261.312 226.782,262.001 222.2,263.5 M 200.741,222.101 L 269.036,244.302 C 266.057,230.313 255.89,218.237 241.294,213.493 C 237.059,212.105 232.731,211.45 228.483,211.45 C 218.182,211.45 208.296,215.331 200.741,222.101 M 388.209,233.01 C 407.631,250.452 435.533,257.367 462.151,248.727 C 488.773,240.086 507.295,218.078 512.739,192.538 L 388.209,233.01 z M 311.24,220.361 C 321.759,214.292 328.825,202.935 328.825,189.919 C 328.825,176.886 321.759,165.532 311.24,159.46 L 311.24,220.361 z M 21.952,164.029 L 200.741,222.101 C 192.915,185.48 166.33,153.87 128.125,141.445 C 116.986,137.835 105.694,136.109 94.584,136.109 C 67.583,136.109 41.71,146.269 21.952,164.029 M 363.994,185.417 C 392.783,188.402 422.332,176.441 440.58,151.315 C 458.809,126.209 461.088,94.408 449.34,67.943 L 363.986,185.417 L 363.994,185.417 M 146.021,30.617 L 248.128,171.154 L 287.139,224.833 C 292.497,212.743 291.475,198.207 283.129,186.742 C 275.632,176.409 263.957,170.945 252.105,170.945 C 250.772,170.945 249.462,171.026 248.128,171.154 C 262.176,139.496 259.476,101.436 237.658,71.409 C 218.029,44.384 187.445,30.073 156.442,30.073 C 152.961,30.073 149.487,30.251 146.021,30.617 M 311.24,159.459 C 338.754,143.536 357.27,113.798 357.27,79.73 C 357.27,45.646 338.753,15.908 311.24,0 L 311.24,159.459 z"
   id="path236" />
</svg>