<?xml version="1.0" encoding="utf-8"?>
<!-- Generator: Adobe Illustrator 13.0.2, SVG Export Plug-In . SVG Version: 6.00 Build 14948)  -->
<!DOCTYPE svg PUBLIC "-//W3C//DTD SVG 1.0//EN" "http://www.w3.org/TR/2001/REC-SVG-20010904/DTD/svg10.dtd">
<svg version="1.0" id="Layer_1" xmlns="http://www.w3.org/2000/svg" xmlns:xlink="http://www.w3.org/1999/xlink" x="0px" y="0px"
	 width="434.054px" height="381.727px" viewBox="0 0 434.054 381.727" enable-background="new 0 0 434.054 381.727"
	 xml:space="preserve">
<g>
	<g>
		<path fill="#A09F9F" d="M217.027,2.5C98.547,2.5,2.5,79.388,2.5,174.234c0,41.866,18.723,80.227,49.819,110.026L29.527,377.5
			l105.802-44.437c25.183,8.311,52.769,12.905,81.698,12.905c118.479,0,214.526-76.888,214.526-171.734S335.507,2.5,217.027,2.5z"/>
	</g>
	<g>
		<path fill="none" stroke="#020202" stroke-width="5" d="M217.027,2.5C98.547,2.5,2.5,79.388,2.5,174.234
			c0,41.866,18.723,80.227,49.819,110.026L29.527,377.5l105.802-44.437c25.183,8.311,52.769,12.905,81.698,12.905
			c118.479,0,214.526-76.888,214.526-171.734S335.507,2.5,217.027,2.5z"/>
	</g>
</g>
</svg>
